<svg version="1.2" xmlns="http://www.w3.org/2000/svg" viewBox="0 0 16 16" width="16" height="16"><style>.a{fill:#ced0d4}</style><path fill-rule="evenodd" class="a" d="m5.8 8.8v1.3c0 0.2-0.2 0.4-0.4 0.4h-1.3c-0.2 0-0.4-0.2-0.4-0.4v-1.3c0-0.2 0.2-0.3 0.4-0.3h1.3c0.2 0 0.4 0.1 0.4 0.3zm3.2 1.3c0 0.2-0.1 0.4-0.4 0.4h-1.2c-0.3 0-0.4-0.2-0.4-0.4v-1.3c0-0.2 0.1-0.3 0.4-0.3h1.2c0.3 0 0.4 0.1 0.4 0.3zm3.3 0c0 0.2-0.2 0.4-0.4 0.4h-1.3c-0.2 0-0.4-0.2-0.4-0.4v-1.2c0-0.2 0.2-0.4 0.4-0.4h1.3c0.2 0 0.4 0.2 0.4 0.4zm-6.5 1.9v1.2c0 0.2-0.2 0.4-0.4 0.4h-1.3c-0.2 0-0.4-0.2-0.4-0.4v-1.2c0-0.2 0.2-0.4 0.4-0.4h1.3c0.2 0 0.4 0.2 0.4 0.4zm3.2 1.2c0 0.2-0.1 0.4-0.4 0.4h-1.2c-0.3 0-0.4-0.2-0.4-0.4v-1.2c0-0.2 0.1-0.4 0.4-0.4h1.2c0.3 0 0.4 0.2 0.4 0.4zm3.3-1.3v1.3c0 0.2-0.2 0.3-0.4 0.3h-1.3c-0.2 0-0.4-0.1-0.4-0.3v-1.3c0-0.2 0.2-0.4 0.4-0.4h1.3c0.2 0 0.4 0.2 0.4 0.4zm3.7-8.8v11.4c0 0.7-0.7 1.4-1.5 1.4h-13c-0.8 0-1.5-0.7-1.5-1.4v-11.4c0-0.8 0.6-1.4 1.4-1.4v1.9c0 0.9 0.7 1.6 1.6 1.6h1.1c0.9 0 1.6-0.7 1.6-1.6v-1.9h4.6v1.9c0 0.9 0.7 1.6 1.6 1.6h1.1c0.9 0 1.6-0.7 1.6-1.6v-1.9c0.8 0 1.4 0.6 1.4 1.4zm-1.9 10.6v-5.8c0-0.4-0.3-0.6-0.6-0.6h-11c-0.3 0-0.6 0.2-0.6 0.6v5.8c0 0.4 0.3 0.7 0.6 0.7h11c0.3 0 0.6-0.3 0.6-0.7zm-11.6-10.1v-3.2c0-0.3 0.2-0.5 0.5-0.5h1.1c0.3 0 0.5 0.2 0.5 0.5v3.2c0 0.3-0.2 0.6-0.5 0.6h-1.1c-0.3 0-0.5-0.3-0.5-0.6zm8.9 0v-3.2c0-0.3 0.2-0.5 0.5-0.5h1c0.3 0 0.6 0.2 0.6 0.5v3.2c0 0.3-0.3 0.6-0.6 0.6h-1c-0.3 0-0.5-0.3-0.5-0.6z"/></svg>