<svg version="1.2" xmlns="http://www.w3.org/2000/svg" viewBox="0 0 28 21" width="28" height="21"><style>.a{fill:#ced0d4}</style><path fill-rule="evenodd" class="a" d="m15.4 20.7h-9.6c-3.2-0.3-5.6-3-5.6-6.2 0-1.9 0.9-3.7 2.4-4.8q-0.1-0.4-0.1-0.9c0-1.1 0.5-2.2 1.3-3 0.8-0.8 1.9-1.2 3.1-1.2q0.4 0 0.7 0c1-1.6 2.4-2.8 4.2-3.4 2-0.7 4.1-0.6 6 0.3 2.3 1.1 3.9 3.2 4.3 5.7 3.4 1 5.6 4.4 4.9 7.9-0.5 3.1-3 5.4-6.1 5.6zm-8.6-14.6c-0.7 0-1.4 0.3-1.9 0.8-0.5 0.5-0.8 1.2-0.8 2q0 0.4 0.2 0.9l0.2 0.6-0.6 0.3c-1.3 0.8-2.2 2.2-2.2 3.8 0 2.4 1.8 4.5 4.2 4.7h14.9c2.4-0.2 4.3-2 4.8-4.4 0.5-2.8-1.4-5.6-4.3-6.2l-0.5-0.1-0.1-0.6c-0.2-2.2-1.6-4-3.5-5-1.6-0.7-3.3-0.8-4.8-0.3-1.6 0.6-2.9 1.7-3.7 3.3l-0.3 0.6-0.6-0.2q-0.5-0.2-0.9-0.2 0 0-0.1 0zm10.9 7.1l-3.6 4.8q0 0.1-0.1 0.1c-0.2 0.2-0.6 0.1-0.8-0.1l-3.5-4.8q-0.1-0.2-0.1-0.4c0-0.3 0.3-0.5 0.6-0.5h1.8v-5.5h3.4v5.5h1.8q0.2 0 0.3 0.1c0.3 0.2 0.3 0.5 0.2 0.8z"/></svg>