<svg version="1.2" xmlns="http://www.w3.org/2000/svg" viewBox="0 0 24 22" width="24" height="22"><style>.a{fill:#ced0d4}</style><path fill-rule="evenodd" class="a" d="m22.9 9.7c-0.5 2-1.6 3.8-3.2 5.2l-7.6 6.6c-0.3 0.3-0.7 0.3-1 0l-7.5-6.6c-1.6-1.4-2.7-3.2-3.2-5.2-0.2-0.8-0.2-1.4-0.2-1.9q0-0.4 0-0.6 0 0 0 0 0 0 0 0c0.2-1.8 0.9-3.4 2.1-4.6 1.2-1.2 2.7-1.9 4.5-1.9 1.9 0 3.6 0.9 4.8 2.3 1.2-1.4 3-2.3 5-2.3 1.7 0 3.3 0.7 4.4 1.9 1.2 1.2 1.9 2.8 2.1 4.6q0 0 0 0 0 0 0 0 0.1 0.2 0.1 0.6c0 0.5-0.1 1.1-0.3 1.9zm-1.4-0.4c-0.4 1.7-1.4 3.3-2.8 4.5l-7.1 6.2-7-6.2c-1.4-1.2-2.3-2.8-2.7-4.5-0.2-0.6-0.2-1.1-0.2-1.5q0-0.3 0-0.4c0.1-1.6 0.8-2.9 1.7-3.8 0.9-0.9 2-1.4 3.4-1.4 1.7 0 3.2 0.9 4.2 2.4 0.1 0.2 0.3 0.4 0.6 0.4 0.3 0 0.5-0.1 0.6-0.4 1-1.5 2.6-2.4 4.4-2.4 1.3 0 2.5 0.5 3.4 1.4 0.9 0.9 1.5 2.2 1.6 3.8q0.1 0.1 0.1 0.4c0 0.4-0.1 0.9-0.2 1.5z"/></svg>