<svg version="1.2" xmlns="http://www.w3.org/2000/svg" viewBox="0 0 18 14" width="18" height="14"><style>.a{fill:#ced0d4}</style><path fill-rule="evenodd" class="a" d="m3.6 8.3q0-0.5 0.4-0.9l6.8-6.6q0.3-0.3 0.9-0.6 0.6-0.2 1.1-0.2h4q0.5 0 0.8 0.4 0.4 0.3 0.4 0.8v3.8q0 0.5-0.3 1.1-0.2 0.6-0.6 0.9l-6.7 6.7q-0.4 0.3-0.9 0.3-0.5 0-0.9-0.3l-4.6-4.6q-0.4-0.3-0.4-0.8zm10.5-4.5q0.4 0.3 0.9 0.3 0.5 0 0.8-0.3 0.4-0.4 0.4-0.8 0-0.5-0.4-0.9-0.3-0.3-0.8-0.3-0.5 0-0.9 0.3-0.3 0.4-0.3 0.9 0 0.4 0.3 0.8zm-13.7 3.6l6.7-6.6q0.4-0.3 1-0.6 0.6-0.2 1.1-0.2h2.1q-0.5 0-1.1 0.2-0.6 0.3-0.9 0.6l-6.8 6.6q-0.4 0.4-0.4 0.9 0 0.5 0.4 0.8l4.4 4.4q-0.3 0.2-0.5 0.4-0.2 0.1-0.5 0.1-0.5 0-0.9-0.3l-4.6-4.6q-0.4-0.3-0.4-0.8 0-0.5 0.4-0.9z"/></svg>